<mxfile host="Electron" modified="2023-08-06T13:09:32.712Z" agent="Mozilla/5.0 (Windows NT 10.0; Win64; x64) AppleWebKit/537.36 (KHTML, like Gecko) draw.io/21.6.5 Chrome/114.0.5735.243 Electron/25.3.1 Safari/537.36" etag="yWuZLVv3zgZxMSsiyabX" version="21.6.5" type="device">
  <diagram name="Page-1" id="Wweo6X3iBDJWbFFaiayP">
    <mxGraphModel dx="880" dy="511" grid="1" gridSize="10" guides="1" tooltips="1" connect="1" arrows="1" fold="1" page="1" pageScale="1" pageWidth="1169" pageHeight="827" math="0" shadow="0">
      <root>
        <mxCell id="0" />
        <mxCell id="1" parent="0" />
        <mxCell id="n9ylkvugT5fbFs9B6WdP-1" style="edgeStyle=orthogonalEdgeStyle;rounded=0;orthogonalLoop=1;jettySize=auto;html=1;startArrow=openThin;startFill=0;endArrow=openThin;endFill=0;endSize=12;startSize=12;targetPerimeterSpacing=4;sourcePerimeterSpacing=4;jumpSize=6;jumpStyle=none;" edge="1" parent="1" source="n9ylkvugT5fbFs9B6WdP-6" target="n9ylkvugT5fbFs9B6WdP-11">
          <mxGeometry relative="1" as="geometry" />
        </mxCell>
        <mxCell id="n9ylkvugT5fbFs9B6WdP-2" value="a" style="edgeLabel;html=1;align=center;verticalAlign=middle;resizable=0;points=[];" vertex="1" connectable="0" parent="n9ylkvugT5fbFs9B6WdP-1">
          <mxGeometry x="-0.8" y="1" relative="1" as="geometry">
            <mxPoint x="7" y="-11" as="offset" />
          </mxGeometry>
        </mxCell>
        <mxCell id="n9ylkvugT5fbFs9B6WdP-3" value="b" style="edgeLabel;html=1;align=center;verticalAlign=middle;resizable=0;points=[];" vertex="1" connectable="0" parent="n9ylkvugT5fbFs9B6WdP-1">
          <mxGeometry x="0.6" y="-1" relative="1" as="geometry">
            <mxPoint x="2" y="-11" as="offset" />
          </mxGeometry>
        </mxCell>
        <mxCell id="n9ylkvugT5fbFs9B6WdP-4" value="1..4" style="edgeLabel;html=1;align=center;verticalAlign=middle;resizable=0;points=[];" vertex="1" connectable="0" parent="n9ylkvugT5fbFs9B6WdP-1">
          <mxGeometry x="-0.7333" y="-1" relative="1" as="geometry">
            <mxPoint x="9" y="10" as="offset" />
          </mxGeometry>
        </mxCell>
        <mxCell id="n9ylkvugT5fbFs9B6WdP-5" value="2..5" style="edgeLabel;html=1;align=center;verticalAlign=middle;resizable=0;points=[];" vertex="1" connectable="0" parent="n9ylkvugT5fbFs9B6WdP-1">
          <mxGeometry x="0.6167" relative="1" as="geometry">
            <mxPoint x="-6" y="11" as="offset" />
          </mxGeometry>
        </mxCell>
        <mxCell id="n9ylkvugT5fbFs9B6WdP-6" value="A" style="whiteSpace=wrap;html=1;fontStyle=1" vertex="1" parent="1">
          <mxGeometry x="40" y="40" width="80" height="40" as="geometry" />
        </mxCell>
        <mxCell id="n9ylkvugT5fbFs9B6WdP-7" value="C" style="whiteSpace=wrap;html=1;fontStyle=1" vertex="1" parent="1">
          <mxGeometry x="40" y="90" width="80" height="40" as="geometry" />
        </mxCell>
        <mxCell id="n9ylkvugT5fbFs9B6WdP-8" value="E" style="whiteSpace=wrap;html=1;fontStyle=1" vertex="1" parent="1">
          <mxGeometry x="40" y="140" width="80" height="40" as="geometry" />
        </mxCell>
        <mxCell id="n9ylkvugT5fbFs9B6WdP-9" value="G" style="whiteSpace=wrap;html=1;fontStyle=1" vertex="1" parent="1">
          <mxGeometry x="40" y="190" width="80" height="40" as="geometry" />
        </mxCell>
        <mxCell id="n9ylkvugT5fbFs9B6WdP-11" value="B" style="whiteSpace=wrap;html=1;fontStyle=1" vertex="1" parent="1">
          <mxGeometry x="240" y="40" width="80" height="40" as="geometry" />
        </mxCell>
        <mxCell id="n9ylkvugT5fbFs9B6WdP-12" value="D" style="whiteSpace=wrap;html=1;fontStyle=1" vertex="1" parent="1">
          <mxGeometry x="240" y="90" width="80" height="40" as="geometry" />
        </mxCell>
        <mxCell id="n9ylkvugT5fbFs9B6WdP-13" value="F" style="whiteSpace=wrap;html=1;fontStyle=1" vertex="1" parent="1">
          <mxGeometry x="240" y="140" width="80" height="40" as="geometry" />
        </mxCell>
        <mxCell id="n9ylkvugT5fbFs9B6WdP-14" value="H" style="whiteSpace=wrap;html=1;fontStyle=1" vertex="1" parent="1">
          <mxGeometry x="240" y="190" width="80" height="40" as="geometry" />
        </mxCell>
        <mxCell id="n9ylkvugT5fbFs9B6WdP-16" style="edgeStyle=orthogonalEdgeStyle;rounded=0;orthogonalLoop=1;jettySize=auto;html=1;endArrow=openThin;endFill=0;startArrow=openThin;startFill=0;targetPerimeterSpacing=4;endSize=12;startSize=12;" edge="1" parent="1" source="n9ylkvugT5fbFs9B6WdP-7" target="n9ylkvugT5fbFs9B6WdP-12">
          <mxGeometry relative="1" as="geometry">
            <mxPoint x="121" y="110" as="sourcePoint" />
            <mxPoint x="241" y="110" as="targetPoint" />
          </mxGeometry>
        </mxCell>
        <mxCell id="n9ylkvugT5fbFs9B6WdP-17" value="c" style="edgeLabel;html=1;align=center;verticalAlign=middle;resizable=0;points=[];" vertex="1" connectable="0" parent="n9ylkvugT5fbFs9B6WdP-16">
          <mxGeometry x="-0.8" y="1" relative="1" as="geometry">
            <mxPoint x="2" y="-11" as="offset" />
          </mxGeometry>
        </mxCell>
        <mxCell id="n9ylkvugT5fbFs9B6WdP-18" value="d" style="edgeLabel;html=1;align=center;verticalAlign=middle;resizable=0;points=[];" vertex="1" connectable="0" parent="n9ylkvugT5fbFs9B6WdP-16">
          <mxGeometry x="0.6" y="-1" relative="1" as="geometry">
            <mxPoint x="2" y="-10" as="offset" />
          </mxGeometry>
        </mxCell>
        <mxCell id="n9ylkvugT5fbFs9B6WdP-19" value="1..4" style="edgeLabel;html=1;align=center;verticalAlign=middle;resizable=0;points=[];" vertex="1" connectable="0" parent="n9ylkvugT5fbFs9B6WdP-16">
          <mxGeometry x="-0.7333" y="-1" relative="1" as="geometry">
            <mxPoint y="10" as="offset" />
          </mxGeometry>
        </mxCell>
        <mxCell id="n9ylkvugT5fbFs9B6WdP-20" value="2..5" style="edgeLabel;html=1;align=center;verticalAlign=middle;resizable=0;points=[];" vertex="1" connectable="0" parent="n9ylkvugT5fbFs9B6WdP-16">
          <mxGeometry x="0.6167" relative="1" as="geometry">
            <mxPoint x="-6" y="11" as="offset" />
          </mxGeometry>
        </mxCell>
        <mxCell id="n9ylkvugT5fbFs9B6WdP-21" style="edgeStyle=orthogonalEdgeStyle;rounded=0;orthogonalLoop=1;jettySize=auto;html=1;endArrow=openThin;endFill=0;endSize=12;targetPerimeterSpacing=2;" edge="1" parent="1" source="n9ylkvugT5fbFs9B6WdP-8" target="n9ylkvugT5fbFs9B6WdP-13">
          <mxGeometry relative="1" as="geometry">
            <mxPoint x="121" y="160" as="sourcePoint" />
            <mxPoint x="241" y="160" as="targetPoint" />
          </mxGeometry>
        </mxCell>
        <mxCell id="n9ylkvugT5fbFs9B6WdP-22" value="e" style="edgeLabel;html=1;align=center;verticalAlign=middle;resizable=0;points=[];" vertex="1" connectable="0" parent="n9ylkvugT5fbFs9B6WdP-21">
          <mxGeometry x="-0.8" y="1" relative="1" as="geometry">
            <mxPoint x="-1" y="-11" as="offset" />
          </mxGeometry>
        </mxCell>
        <mxCell id="n9ylkvugT5fbFs9B6WdP-23" value="f" style="edgeLabel;html=1;align=center;verticalAlign=middle;resizable=0;points=[];" vertex="1" connectable="0" parent="n9ylkvugT5fbFs9B6WdP-21">
          <mxGeometry x="0.6" y="-1" relative="1" as="geometry">
            <mxPoint x="5" y="-13" as="offset" />
          </mxGeometry>
        </mxCell>
        <mxCell id="n9ylkvugT5fbFs9B6WdP-24" value="1..4" style="edgeLabel;html=1;align=center;verticalAlign=middle;resizable=0;points=[];" vertex="1" connectable="0" parent="n9ylkvugT5fbFs9B6WdP-21">
          <mxGeometry x="-0.7333" y="-1" relative="1" as="geometry">
            <mxPoint y="10" as="offset" />
          </mxGeometry>
        </mxCell>
        <mxCell id="n9ylkvugT5fbFs9B6WdP-25" value="2..5" style="edgeLabel;html=1;align=center;verticalAlign=middle;resizable=0;points=[];" vertex="1" connectable="0" parent="n9ylkvugT5fbFs9B6WdP-21">
          <mxGeometry x="0.6167" relative="1" as="geometry">
            <mxPoint x="-6" y="11" as="offset" />
          </mxGeometry>
        </mxCell>
        <mxCell id="n9ylkvugT5fbFs9B6WdP-26" style="edgeStyle=orthogonalEdgeStyle;rounded=0;orthogonalLoop=1;jettySize=auto;html=1;startArrow=none;startFill=0;endArrow=none;endFill=0;endSize=12;startSize=0;" edge="1" parent="1" source="n9ylkvugT5fbFs9B6WdP-9" target="n9ylkvugT5fbFs9B6WdP-14">
          <mxGeometry relative="1" as="geometry">
            <mxPoint x="120" y="209" as="sourcePoint" />
            <mxPoint x="240" y="209" as="targetPoint" />
          </mxGeometry>
        </mxCell>
        <mxCell id="n9ylkvugT5fbFs9B6WdP-27" value="g" style="edgeLabel;html=1;align=center;verticalAlign=middle;resizable=0;points=[];" vertex="1" connectable="0" parent="n9ylkvugT5fbFs9B6WdP-26">
          <mxGeometry x="-0.8" y="1" relative="1" as="geometry">
            <mxPoint x="1" y="-11" as="offset" />
          </mxGeometry>
        </mxCell>
        <mxCell id="n9ylkvugT5fbFs9B6WdP-28" value="h" style="edgeLabel;html=1;align=center;verticalAlign=middle;resizable=0;points=[];" vertex="1" connectable="0" parent="n9ylkvugT5fbFs9B6WdP-26">
          <mxGeometry x="0.6" y="-1" relative="1" as="geometry">
            <mxPoint x="2" y="-11" as="offset" />
          </mxGeometry>
        </mxCell>
        <mxCell id="n9ylkvugT5fbFs9B6WdP-29" value="1..4" style="edgeLabel;html=1;align=center;verticalAlign=middle;resizable=0;points=[];" vertex="1" connectable="0" parent="n9ylkvugT5fbFs9B6WdP-26">
          <mxGeometry x="-0.7333" y="-1" relative="1" as="geometry">
            <mxPoint y="10" as="offset" />
          </mxGeometry>
        </mxCell>
        <mxCell id="n9ylkvugT5fbFs9B6WdP-30" value="2..5" style="edgeLabel;html=1;align=center;verticalAlign=middle;resizable=0;points=[];" vertex="1" connectable="0" parent="n9ylkvugT5fbFs9B6WdP-26">
          <mxGeometry x="0.6167" relative="1" as="geometry">
            <mxPoint x="-4" y="11" as="offset" />
          </mxGeometry>
        </mxCell>
        <mxCell id="n9ylkvugT5fbFs9B6WdP-36" value="&lt;b&gt;Figure 11.30 Examples of class-owned ends&lt;/b&gt;" style="text;html=1;align=left;verticalAlign=middle;resizable=0;points=[];autosize=1;strokeColor=none;fillColor=none;" vertex="1" parent="1">
          <mxGeometry x="40" y="240" width="270" height="30" as="geometry" />
        </mxCell>
        <mxCell id="n9ylkvugT5fbFs9B6WdP-39" value="" style="shape=waypoint;sketch=0;size=6;pointerEvents=1;points=[];fillColor=none;resizable=0;rotatable=0;perimeter=centerPerimeter;snapToPoint=1;" vertex="1" parent="1">
          <mxGeometry x="113" y="50" width="20" height="20" as="geometry" />
        </mxCell>
        <mxCell id="n9ylkvugT5fbFs9B6WdP-40" value="" style="shape=waypoint;sketch=0;size=6;pointerEvents=1;points=[];fillColor=none;resizable=0;rotatable=0;perimeter=centerPerimeter;snapToPoint=1;" vertex="1" parent="1">
          <mxGeometry x="227" y="50" width="20" height="20" as="geometry" />
        </mxCell>
        <mxCell id="n9ylkvugT5fbFs9B6WdP-41" value="" style="shape=waypoint;sketch=0;size=6;pointerEvents=1;points=[];fillColor=none;resizable=0;rotatable=0;perimeter=centerPerimeter;snapToPoint=1;" vertex="1" parent="1">
          <mxGeometry x="227" y="100" width="20" height="20" as="geometry" />
        </mxCell>
        <mxCell id="n9ylkvugT5fbFs9B6WdP-42" value="" style="shape=waypoint;sketch=0;size=6;pointerEvents=1;points=[];fillColor=none;resizable=0;rotatable=0;perimeter=centerPerimeter;snapToPoint=1;" vertex="1" parent="1">
          <mxGeometry x="227" y="150" width="20" height="20" as="geometry" />
        </mxCell>
        <mxCell id="n9ylkvugT5fbFs9B6WdP-43" value="" style="shape=waypoint;sketch=0;size=6;pointerEvents=1;points=[];fillColor=none;resizable=0;rotatable=0;perimeter=centerPerimeter;snapToPoint=1;" vertex="1" parent="1">
          <mxGeometry x="227" y="200" width="20" height="20" as="geometry" />
        </mxCell>
        <mxCell id="n9ylkvugT5fbFs9B6WdP-45" value="&lt;div&gt;In the top pair AB, end b is owned by Class A and end a is owned by Class B. Because the ends are class-&lt;/div&gt;&lt;div&gt;owned, they are navigable.&lt;/div&gt;&lt;div&gt;&lt;br&gt;&lt;/div&gt;&lt;div&gt;In the second pair CD, end d is owned by Class C, and hence is navigable. End c is owned by the Association,&lt;/div&gt;&lt;div&gt;and is marked as navigable.&lt;/div&gt;&lt;div&gt;&lt;br&gt;&lt;/div&gt;&lt;div&gt;In the third pair EF, end f is owned by Class E, and hence is navigable. End e is owned by the Association, and&lt;/div&gt;&lt;div&gt;is marked as not navigable, in a diagram where arrows are only shown for one-way navigable associations, and&lt;/div&gt;&lt;div&gt;crosses are suppressed.&lt;/div&gt;&lt;div&gt;&lt;br&gt;&lt;/div&gt;&lt;div&gt;In the fourth pair GH, end h is owned by Class G and end g is owned by Class H. Because the ends are class-&lt;/div&gt;&lt;div&gt;owned, they are navigable. This is in a diagram where arrows are only shown for one-way navigable&lt;/div&gt;&lt;div style=&quot;&quot;&gt;associations.&lt;/div&gt;" style="text;html=1;align=left;verticalAlign=middle;resizable=0;points=[];autosize=1;strokeColor=none;fillColor=none;" vertex="1" parent="1">
          <mxGeometry x="40" y="270" width="620" height="200" as="geometry" />
        </mxCell>
      </root>
    </mxGraphModel>
  </diagram>
</mxfile>
